<?xml version="1.0" encoding="UTF-8" standalone="no"?>
<svg
   xmlns:dc="http://purl.org/dc/elements/1.1/"
   xmlns:cc="http://creativecommons.org/ns#"
   xmlns:rdf="http://www.w3.org/1999/02/22-rdf-syntax-ns#"
   xmlns:svg="http://www.w3.org/2000/svg"
   xmlns="http://www.w3.org/2000/svg"
   version="1.1"
   id="svg4320"
   viewBox="0 0 256 256"
   height="256"
   width="256">
  <defs
     id="defs4322">
    <clipPath
       id="clipPath36"
       clipPathUnits="userSpaceOnUse">
      <path
         id="path38"
         d="M 0,520 520,520 520,0 0,0 0,520 Z" />
    </clipPath>
  </defs>
  <metadata
     id="metadata4325">
    <rdf:RDF>
      <cc:Work
         rdf:about="">
        <dc:format>image/svg+xml</dc:format>
        <dc:type
           rdf:resource="http://purl.org/dc/dcmitype/StillImage" />
        <dc:title></dc:title>
      </cc:Work>
    </rdf:RDF>
  </metadata>
  <g
     transform="translate(0,-796.36219)"
     id="layer1">
    <g
       clip-path="url(#clipPath36)"
       id="g34"
       transform="matrix(1.2500018,0,0,-1.2500018,-197.45353,1249.8151)">
      <g
         transform="translate(166.0986,299.9121)"
         id="g40">
        <path
           id="path42"
           style="fill:#79aa4f;fill-opacity:1;fill-rule:nonzero;stroke:none"
           d="m 0,0 c -5.233,-12.266 -8.136,-25.755 -8.136,-39.912 0,-20.896 6.323,-40.337 17.142,-56.531 L 64.78,0 0,0 Z" />
      </g>
      <g
         transform="translate(178.4502,198.7451)"
         id="g44">
        <path
           id="path46"
           style="fill:#00aad9;fill-opacity:1;fill-rule:nonzero;stroke:none"
           d="m 0,0 c 18.636,-24.748 48.254,-40.783 81.55,-40.783 2.178,0 4.333,0.092 6.476,0.226 L 32.402,56.028 0,0 Z" />
      </g>
      <g
         transform="translate(244.7139,360.8896)"
         id="g48">
        <path
           id="path50"
           style="fill:#ffaf44;fill-opacity:1;fill-rule:nonzero;stroke:none"
           d="m 0,0 c -33.469,-5.05 -61.646,-26.421 -76.174,-55.716 l 108.742,0 L 0,0 Z" />
      </g>
      <g
         transform="translate(341.2344,321.6558)"
         id="g52">
        <path
           id="path54"
           style="fill:#f38337;fill-opacity:1;fill-rule:nonzero;stroke:none"
           d="m 0,0 c -18.653,24.517 -48.121,40.382 -81.234,40.382 -3.236,0 -6.432,-0.169 -9.592,-0.465 L -33.409,-58.307 0,0 Z" />
      </g>
      <g
         transform="translate(344.6133,316.9712)"
         id="g56">
        <path
           id="path58"
           style="fill:#db4f44;fill-opacity:1;fill-rule:nonzero;stroke:none"
           d="m 0,0 -55.512,-96.884 64.8,0 c 5.233,12.266 8.137,25.757 8.137,39.913 C 17.425,-35.889 10.997,-16.28 0,0" />
      </g>
      <g
         transform="translate(272.2412,158.7217)"
         id="g60">
        <path
           id="path62"
           style="fill:#8e5d96;fill-opacity:1;fill-rule:nonzero;stroke:none"
           d="m 0,0 c 34.796,4.182 64.253,25.928 79.219,56.104 l -111.532,0 L 0,0 Z" />
      </g>
      <g
         transform="translate(260,372.2017)"
         id="g64" />
    </g>
  </g>
</svg>
